<svg xmlns="http://www.w3.org/2000/svg" viewBox="0 19.100000381469727 21.350000381469727 42.5" data-asc="1.16" width="21.350000381469727" height="42.5"><defs/><g><g fill="#000000"><g transform="translate(0, 0)"><path d="M0 49.15Q3.00 49.80 5.25 49.80L5.80 49.80Q6.95 49.70 7.38 48.90Q7.80 48.10 7.80 46.70L7.80 19.85L16.35 19.10L21.35 21.60L21.35 50.75Q21.35 60.70 12.90 61.45Q11.35 61.60 9.95 61.60Q8.70 61.60 7.60 61.50Q6.50 61.40 5.65 61.25L0.60 58.75L0 49.15M8.30 20.30L8.30 46.70Q8.30 48.35 7.75 49.27Q7.20 50.20 5.85 50.30L5.25 50.30Q4.25 50.30 2.90 50.15Q1.55 50.00 0.55 49.80L1.10 58.30Q1.80 58.40 2.75 58.50Q3.70 58.60 4.90 58.60Q6.30 58.60 7.85 58.45Q15.85 57.80 15.85 48.25L15.85 19.65L8.30 20.30Z"/></g><g transform="translate(0, 64.4)"><path d=""/></g></g></g></svg>