<svg width="215.00000000000003" height="140" xmlns="http://www.w3.org/2000/svg" data-asc="1.16">
 <g id="Layer_1">
  <title>Layer 1</title>
  <g>

   <g>
    <g fill="#000000">
     <g>
      <path d="m69.22615,42.64839l0,-38l8.7,-0.8l5,2.5l0,38l-8.7,0.75l-5,-2.45m0.5,-37.55l0,37l7.7,-0.7l0,-37l-7.7,0.7zm18.6,14.7l-0.7,-15.85l7.9,-0.65l5,2.5l-1,16l-6.2,0.5l-5,-2.5m-0.15,-15.35l0.6,14.85l5.25,-0.45l0.95,-15l-6.8,0.6zm42.5,38.05l0,2.35l-8.05,0.75l-4.75,-2.5l0,2.4l-8.15,0.7l-5,-2.5l0,-27.45l7.65,-0.65l1.35,1.2q0.8,-0.75 1.95,-1.28q1.15,-0.52 2.35,-0.62q0.2,0 0.38,-0.03q0.17,-0.02 0.37,-0.02q2.05,0 3.83,0.95q1.77,0.95 2.72,2.15q0.7,-1.3 2.1,-2.43q1.4,-1.12 3.4,-1.27q0.25,0 0.53,-0.03q0.27,-0.02 0.57,-0.02q3.05,0 5.7,1.15q2.65,1.15 4.28,3.32q1.62,2.18 1.62,5.28l0,20.35l-8.15,0.65l-4.7,-2.45m7.35,-21.05q0,-3.45 -1.8,-5.1q-1.8,-1.65 -4.5,-1.65q-0.2,0 -0.4,0.02q-0.2,0.03 -0.45,0.03q-1.6,0.15 -2.82,1q-1.23,0.85 -1.98,2.05q-0.75,1.2 -1.05,2.45l-0.15,-0.05q-0.4,-1.8 -1.87,-3.33q-1.48,-1.52 -4.18,-1.52q-0.2,0 -0.37,0.02q-0.18,0.03 -0.38,0.03q-2.45,0.2 -4.05,1.9q-1.6,1.7 -2,3.85l-0.15,0.05l0,-5.05l-6.65,0.55l0,26.45l7.15,-0.55l0,-16.35q0.25,-1.25 1.03,-2.25q0.77,-1 2.12,-1.1l0.35,0q1.05,0 1.65,0.72q0.6,0.73 0.6,2.38l0,16.6l7.05,-0.65l0,-16.35q0.25,-1.2 1.03,-2.2q0.77,-1 2.07,-1.1l0.35,0q1.1,0 1.68,0.7q0.57,0.7 0.57,2.35l0,16.6l7.15,-0.6l0,-19.9z"/>
     </g>
    </g>
   </g>
  </g>
  <g>

   <g>
    <g fill="#000000">
     <g>
      <path d="m35.21762,74.07388q3,0.65 5.25,0.65l0.55,0q1.15,-0.1 1.58,-0.9q0.42,-0.8 0.42,-2.2l0,-26.85l8.55,-0.75l5,2.5l0,29.15q0,9.95 -8.45,10.7q-1.55,0.15 -2.95,0.15q-1.25,0 -2.35,-0.1q-1.1,-0.1 -1.95,-0.25l-5.05,-2.5l-0.6,-9.6m8.3,-28.85l0,26.4q0,1.65 -0.55,2.57q-0.55,0.93 -1.9,1.03l-0.6,0q-1,0 -2.35,-0.15q-1.35,-0.15 -2.35,-0.35l0.55,8.5q0.7,0.1 1.65,0.2q0.95,0.1 2.15,0.1q1.4,0 2.95,-0.15q8,-0.65 8,-10.2l0,-28.6l-7.55,0.65zm45.05,38.6q-1.6,0.65 -3.3,0.65q-1.55,0 -2.85,-0.43q-1.3,-0.42 -2,-0.82q-2.2,2.65 -6.45,3.05q-0.4,0.05 -0.8,0.05q-0.4,0 -0.8,0q-3.1,0 -5.7,-1.08q-2.6,-1.07 -4.17,-3.25q-1.58,-2.17 -1.58,-5.37q0,-3.45 1.93,-5.5q1.92,-2.05 5.77,-3.9l-2.55,-0.85l-5,-2.5q1.25,-4.35 4.08,-6.55q2.82,-2.2 6.42,-2.55q0.45,-0.05 0.9,-0.08q0.45,-0.02 0.85,-0.02q3.6,0 6.55,1.32q2.95,1.33 4.7,3.75q1.75,2.43 1.75,5.68l0,9.5l3.05,1.5l-0.8,7.4m-4.8,-9.05q-1.2,0.55 -1.8,0.55q-1.15,0 -1.15,-1.5l0,-10.9q0,-7.7 -7.75,-7.7q-0.35,0 -0.7,0q-0.35,0 -0.75,0.05q-3.45,0.35 -6.15,2.4q-2.7,2.05 -3.8,5.95l5.6,1.85q0.55,-1.7 1.53,-2.75q0.97,-1.05 2.22,-1.15q0.15,0 0.3,-0.03q0.15,-0.02 0.25,-0.02q1.15,0 1.75,0.55q0.6,0.55 0.6,1.5q0,1.05 -0.65,1.67q-0.65,0.63 -1.8,1.18l-2.25,1.05q-3.85,1.8 -5.82,3.77q-1.98,1.98 -1.98,5.38q0,6.7 6.3,6.7q0.3,0 0.6,0q0.3,0 0.6,-0.05q2.4,-0.2 4.15,-1.15q1.75,-0.95 2.65,-2.7q0.35,1.05 1.5,1.65q1.15,0.6 2.7,0.6q1.65,0 3.15,-0.65l0.7,-6.25m-13.45,2.7q-0.85,0 -1.4,-0.48q-0.55,-0.47 -0.55,-1.37q0,-2.15 2.2,-3.2l1,-0.5q0.7,-0.35 1.38,-0.68q0.67,-0.32 1.02,-0.72l0,3.45q-0.25,1.55 -1.2,2.47q-0.95,0.93 -2.1,1.03l-0.35,0zm48.85,-2.4q-0.85,4.9 -3.52,7.72q-2.68,2.83 -7.28,3.23q-0.5,0.05 -1,0.07q-0.5,0.03 -1,0.03q-3.1,0 -5.87,-0.88q-2.78,-0.87 -4.9,-2.77q-2.13,-1.9 -3.35,-4.95q-1.23,-3.05 -1.23,-7.35q0,-4.3 1.48,-7.68q1.47,-3.37 4.22,-5.4q2.75,-2.02 6.55,-2.32q0.25,-0.05 0.55,-0.05q0.3,0 0.6,0q2.35,0 4.8,0.7q2.45,0.7 4.6,2.05q2.15,1.35 3.6,3.32q1.45,1.98 1.7,4.53l-6.9,3.25l-5,-2.5q0,-0.1 -0.02,-0.18q-0.03,-0.07 -0.03,-0.12q-1.4,0.35 -2,1.62q-0.6,1.28 -0.6,4.63q0,0.95 0.15,1.65q0.15,0.7 0.4,1.35q0.85,-0.45 1.35,-1.35q0.5,-0.9 0.8,-2.6l6.9,1.5l5,2.5m-11.5,-3.35q-0.35,2.05 -1.42,3.15q-1.08,1.1 -2.58,1.25q-0.15,0 -0.3,0.02q-0.15,0.03 -0.25,0.03q-2.15,0 -3.05,-1.68q-0.9,-1.67 -0.9,-4.97q0,-3.45 1.18,-5.2q1.17,-1.75 3.17,-1.95q0.15,0 0.3,-0.03q0.15,-0.02 0.25,-0.02q2.9,0 3.5,3.05l5.95,-2.8q-0.65,-3.25 -3.05,-5.3q-2.4,-2.05 -6.1,-2.05q-0.25,0 -0.52,0q-0.28,0 -0.53,0.05q-3.7,0.3 -6.35,2.27q-2.65,1.98 -4.05,5.23q-1.4,3.25 -1.4,7.4q0,4.55 1.35,7.4q1.35,2.85 3.7,4.17q2.35,1.33 5.35,1.33q0.35,0 0.7,0q0.35,0 0.7,-0.05q4.4,-0.35 6.95,-3.03q2.55,-2.67 3.3,-7.02l-5.9,-1.25zm30.35,14.25q-0.5,0.05 -1.02,0.07q-0.53,0.03 -1.08,0.03q-4.5,0 -7.95,-1.85q-3.45,-1.85 -5.37,-5.43q-1.93,-3.57 -1.93,-8.62q0,-3.95 1.33,-7.33q1.32,-3.37 4.05,-5.57q2.72,-2.2 6.87,-2.55q0.4,-0.05 0.8,-0.05q0.4,0 0.8,0q3.2,0 6.03,1.15q2.82,1.15 5,3.25q2.17,2.1 3.42,5.02q1.25,2.93 1.25,6.48q0,3.95 -1.32,7.32q-1.33,3.38 -4.03,5.53q-2.7,2.15 -6.85,2.55m-5.05,-3q4,-0.35 6.6,-2.45q2.6,-2.1 3.88,-5.38q1.27,-3.27 1.27,-7.07q0,-3.65 -1.12,-6.55q-1.13,-2.9 -3.45,-4.63q-2.33,-1.72 -5.93,-1.72q-0.3,0 -0.6,0q-0.3,0 -0.65,0.05q-4,0.35 -6.62,2.47q-2.63,2.13 -3.9,5.38q-1.28,3.25 -1.28,7.1q0,3.6 1.15,6.52q1.15,2.93 3.5,4.63q2.35,1.7 5.9,1.7q0.3,0 0.6,0q0.3,0 0.65,-0.05m-0.45,-6.9q-1.85,0 -2.87,-1.6q-1.03,-1.6 -1.03,-4.95q0,-3.5 1.15,-5.28q1.15,-1.77 3.2,-1.97l0.45,0q1.85,0 2.85,1.57q1,1.58 1,4.88q0,3.5 -1.12,5.32q-1.13,1.83 -3.18,2.03l-0.45,0m1.9,-0.95q2.35,-1.3 2.35,-6.4q0,-1.75 -0.3,-3q-1.3,0.2 -1.82,1.77q-0.53,1.58 -0.53,4.53q0,1.8 0.3,3.1zm19.3,8.25l0,-38l8.15,-0.7l5,2.5l0,6.95q1.15,-0.15 2.2,-0.15q3.55,0 6.53,1.77q2.97,1.78 4.8,5.35q1.82,3.58 1.82,9.03q0,7.2 -2.82,11.02q-2.83,3.83 -7.48,4.23q-0.15,0 -0.32,0.02q-0.18,0.03 -0.38,0.03q-1.6,0 -3.17,-0.53q-1.58,-0.52 -2.48,-1.12l-1,1.6l-5.85,0.5l-5,-2.5m7.2,-3.4q0.7,0.7 1.98,1.6q1.27,0.9 3.27,0.9q0.15,0 0.33,-0.03q0.17,-0.02 0.37,-0.02q4.5,-0.4 7.18,-4.13q2.67,-3.72 2.67,-10.67q0,-6.45 -2.32,-9.75q-2.33,-3.3 -6.63,-3.3q-0.2,0 -0.47,0q-0.28,0 -0.53,0.05q-2.3,0.2 -3.55,1.45q-1.25,1.25 -1.7,2.35l-0.15,-0.05l0,-13.15l-7.15,0.6l0,37.05l5.1,-0.45l1.6,-2.45m4,-3.85q-1.55,0 -2.32,-0.9q-0.78,-0.9 -1.23,-1.7l0,-6.8q0,-2.2 1.13,-3.6q1.12,-1.4 2.67,-1.55l0.4,0q2.1,0 2.95,1.72q0.85,1.73 0.85,4.98q0,3.95 -1.18,5.82q-1.17,1.88 -2.92,2.03l-0.35,0m1.95,-1.2q0.95,-0.75 1.48,-2.4q0.52,-1.65 0.52,-4.25q0,-0.85 -0.05,-1.7q-0.05,-0.85 -0.2,-1.35q-1,0.3 -1.37,1.3q-0.38,1 -0.38,2.7l0,5.7z"/>
     </g>
    </g>
   </g>
  </g>
  <g>

   <g>
    <g fill="#000000">
     <g transform="translate(0 0)">
      <path d="m21.47671,126.94936l0,-13.3l-3.25,0.3l0,15.65l-8.6,0.75l-5,-2.5l0,-38l8.6,-0.75l5,2.5l0,11.25l3.25,-0.3l0,-13.65l8.65,-0.8l5,2.5l0,38.05l-8.65,0.75l-5,-2.45m0.5,-37.6l0,13.65l-9.25,0.8l0,-14.15l-7.6,0.65l0,37l7.6,-0.6l0,-15.7l9.25,-0.8l0,16.2l7.65,-0.7l0,-37.05l-7.65,0.7zm34.85,41q-0.5,0.05 -1.03,0.07q-0.52,0.03 -1.07,0.03q-4.5,0 -7.95,-1.85q-3.45,-1.85 -5.38,-5.43q-1.92,-3.57 -1.92,-8.62q0,-3.95 1.32,-7.33q1.33,-3.37 4.05,-5.57q2.73,-2.2 6.88,-2.55q0.4,-0.05 0.8,-0.05q0.4,0 0.8,0q3.2,0 6.02,1.15q2.83,1.15 5,3.25q2.18,2.1 3.43,5.02q1.25,2.93 1.25,6.48q0,3.95 -1.33,7.32q-1.32,3.38 -4.02,5.53q-2.7,2.15 -6.85,2.55m-5.05,-3q4,-0.35 6.6,-2.45q2.6,-2.1 3.88,-5.38q1.27,-3.27 1.27,-7.07q0,-3.65 -1.13,-6.55q-1.12,-2.9 -3.45,-4.63q-2.32,-1.72 -5.92,-1.72q-0.3,0 -0.6,0q-0.3,0 -0.65,0.05q-4,0.35 -6.63,2.47q-2.62,2.13 -3.9,5.38q-1.27,3.25 -1.27,7.1q0,3.6 1.15,6.52q1.15,2.93 3.5,4.63q2.35,1.7 5.9,1.7q0.3,0 0.6,0q0.3,0 0.65,-0.05m-0.45,-6.9q-1.85,0 -2.88,-1.6q-1.02,-1.6 -1.02,-4.95q0,-3.5 1.15,-5.28q1.15,-1.77 3.2,-1.97l0.45,0q1.85,0 2.85,1.57q1,1.58 1,4.88q0,3.5 -1.13,5.32q-1.12,1.83 -3.17,2.03l-0.45,0m1.9,-0.95q2.35,-1.3 2.35,-6.4q0,-1.75 -0.3,-3q-1.3,0.2 -1.83,1.77q-0.52,1.58 -0.52,4.53q0,1.8 0.3,3.1zm19.3,17.35l0,-36.15l7.65,-0.65l1.2,0.6q0.8,-0.65 1.85,-1.13q1.05,-0.47 2.4,-0.57q0.3,-0.05 0.6,-0.05q0.3,0 0.6,0q2.7,0 5.22,1q2.53,1 4.55,3.02q2.03,2.03 3.23,5.03q1.2,3 1.2,7.05q0,7.1 -2.75,10.95q-2.75,3.85 -7.65,4.25q-0.2,0.05 -0.42,0.05q-0.23,0 -0.48,0q-1.4,0 -2.43,-0.3q-1.02,-0.3 -1.62,-0.55l0,9.25l-8.15,0.7l-5,-2.5m7.8,-11.75q0.4,0.95 1.55,1.57q1.15,0.63 2.85,0.63q0.2,0 0.43,0q0.22,0 0.42,-0.05q4.75,-0.4 7.35,-4.15q2.6,-3.75 2.6,-10.6q0,-6.55 -2.4,-9.83q-2.4,-3.27 -6.55,-3.27q-0.2,0 -0.42,0q-0.23,0 -0.48,0.05q-2.35,0.2 -3.8,1.42q-1.45,1.23 -2.05,2.78l-0.15,0l0,-3.05l-6.65,0.55l0,35.15l7.15,-0.6l0,-10.55l0.15,-0.05m3.2,-4.5q-1.25,0 -2.18,-0.65q-0.92,-0.65 -1.17,-1.7l0,-6.9q0,-2.25 1.08,-3.7q1.07,-1.45 2.82,-1.6l0.3,0q1.6,0 2.7,1.67q1.1,1.68 1.1,5.43q0,3.8 -1,5.52q-1,1.73 -3.2,1.93l-0.45,0m2.15,-1.05q0.9,-0.7 1.45,-2.25q0.55,-1.55 0.55,-4.15q0,-1 -0.08,-1.88q-0.07,-0.87 -0.27,-1.52q-0.9,0.3 -1.28,1.17q-0.37,0.88 -0.37,2.93l0,5.7zm33.3,7.35l-1.3,-2.8l0,5.3l-8.15,0.75l-5,-2.5l0,-37.95l8.15,-0.75l5,2.5l0,8.4l0.2,-0.35l9.4,-0.8l5,2.5l-7.6,11.85l8.45,15.6l-9.15,0.75l-5,-2.5m7.35,-27.6l-8.15,0.7l-6,10.55l0,-21.05l-7.15,0.65l0,37l7.15,-0.65l0,-5.1l2.65,-4.6l4.4,9.6l8.05,-0.7l-8.15,-15.15l7.2,-11.25zm8.9,27.85l0,-27.5l3.4,-0.25l-3.5,-1.75l0,-8.5l8.35,-0.7l5,2.5l0,8.5l-3.55,0.3l3.4,1.7l0,27.45l-8.1,0.7l-5,-2.45m0.4,-37.55l0,7.5l7.35,-0.6l0,-7.5l-7.35,0.6m0.1,10.5l0,26.5l7.1,-0.6l0,-26.5l-7.1,0.6zm30.9,27l0,-15.65q-0.6,0.6 -0.75,1.4l0,16.6l-7.55,0.75l-5,-2.5l0,-27.45l7.65,-0.7l1.6,1.3q0.85,-0.7 1.85,-1.28q1,-0.57 2.4,-0.67q0.25,0 0.45,-0.03q0.2,-0.02 0.4,-0.02q2.25,0 4.42,0.8q2.18,0.8 3.91,2.22q1.72,1.43 2.75,3.33q1.02,1.9 1.02,4.1l0,19.55l-8.15,0.7l-5,-2.45m7.65,-21.1q0,-3.45 -1.87,-5.05q-1.88,-1.6 -4.63,-1.6q-0.2,0 -0.43,0q-0.22,0 -0.47,0.05q-2.45,0.2 -4.15,1.87q-1.7,1.68 -2.1,3.88l-0.15,0l0,-5.05l-6.65,0.6l0,26.5l7.15,-0.65l0,-16.25q0.25,-1.2 1.12,-2.2q0.88,-1 2.28,-1.15l0.2,0q1.05,0 1.8,0.72q0.75,0.73 0.75,2.38l0,16.5l7.15,-0.65l0,-19.9zm29.05,5.9q2.95,1.45 4.77,3.6q1.83,2.15 1.83,5q0,4.25 -2.67,6.82q-2.68,2.58 -8.03,3.03q-0.45,0.05 -0.9,0.07q-0.45,0.03 -0.9,0.03q-5.4,0 -9.23,-2.7q-3.82,-2.7 -5.42,-7.45l6.4,-3.9q-2.6,-1.2 -3.95,-2.98q-1.35,-1.77 -1.35,-4.52l0,-0.15q0.05,-2.5 1.25,-4.6q1.2,-2.1 3.45,-3.48q2.25,-1.37 5.35,-1.62q0.4,-0.05 0.77,-0.05q0.38,0 0.73,0q2.3,0 4.65,0.62q2.35,0.63 4.4,1.85q2.05,1.23 3.4,3.1q1.35,1.88 1.65,4.38l-6.2,2.95m-9.6,8.9q-1.65,0 -2.88,-1.1q-1.22,-1.1 -1.77,-2.65l-5.65,3.5q2.25,6.85 9.3,6.85q0.35,0 0.72,0q0.38,0 0.73,-0.05q5.1,-0.4 7.67,-2.83q2.58,-2.42 2.58,-6.52q0,-3.6 -1.77,-5.38q-1.78,-1.77 -6.23,-2.57l-2.6,-0.45q-1.35,-0.25 -2.13,-0.58q-0.77,-0.32 -0.77,-1.22l0,-0.15q0.1,-0.8 0.85,-1.35q0.75,-0.55 2.25,-0.65l0.4,0q1.45,0 2.52,0.87q1.08,0.88 1.43,2.33l5.55,-2.65q-0.65,-3.2 -2.85,-4.95q-2.2,-1.75 -5.75,-1.75q-0.35,0 -0.67,0q-0.33,0 -0.68,0.05q-2.95,0.25 -5.13,1.55q-2.17,1.3 -3.32,3.27q-1.15,1.98 -1.15,4.38q0,3.35 1.75,5.07q1.75,1.73 5.55,2.28l2.85,0.4q1.6,0.2 2.32,0.8q0.73,0.6 0.73,1.45q0,0.95 -0.85,1.42q-0.85,0.48 -2.65,0.63l-0.35,0m4.1,-12.25q-0.15,-0.05 -0.5,-0.05q-0.65,0 -1.2,0.35q-0.55,0.35 -0.7,0.6q1.3,0.2 2.52,0.52q1.23,0.33 2.33,0.73l-2.25,-1.15l-0.2,-1m-3.5,10.25q0.15,0.35 0.3,0.72q0.15,0.38 0.35,0.68q1.8,-0.25 2.05,-1.05q0,0 -0.18,-0.2q-0.17,-0.2 -0.37,-0.25q-1.55,-0.4 -2.9,-0.75q-1.35,-0.35 -2.5,-0.75l3.25,1.6z"/>
     </g>
    </g>
   </g>
  </g>
 </g>

</svg>