<svg xmlns="http://www.w3.org/2000/svg" viewBox="0 19.100000381469727 147 42.5" data-asc="1.16" width="147" height="42.5"><defs/><g><g fill="#000000"><g transform="translate(0, 0)"><path d="M0 49.15Q3.00 49.80 5.25 49.80L5.80 49.80Q6.95 49.70 7.38 48.90Q7.80 48.10 7.80 46.70L7.80 19.85L16.35 19.10L21.35 21.60L21.35 50.75Q21.35 60.70 12.90 61.45Q11.35 61.60 9.95 61.60Q8.70 61.60 7.60 61.50Q6.50 61.40 5.65 61.25L0.60 58.75L0 49.15M8.30 20.30L8.30 46.70Q8.30 48.35 7.75 49.27Q7.20 50.20 5.85 50.30L5.25 50.30Q4.25 50.30 2.90 50.15Q1.55 50.00 0.55 49.80L1.10 58.30Q1.80 58.40 2.75 58.50Q3.70 58.60 4.90 58.60Q6.30 58.60 7.85 58.45Q15.85 57.80 15.85 48.25L15.85 19.65L8.30 20.30ZM53.35 58.90Q51.75 59.55 50.05 59.55Q48.50 59.55 47.20 59.12Q45.90 58.70 45.20 58.30Q43 60.95 38.75 61.35Q38.35 61.40 37.95 61.40Q37.55 61.40 37.15 61.40Q34.05 61.40 31.45 60.32Q28.85 59.25 27.28 57.07Q25.70 54.90 25.70 51.70Q25.70 48.25 27.63 46.20Q29.55 44.15 33.40 42.30L30.85 41.45L25.85 38.95Q27.10 34.60 29.93 32.40Q32.75 30.20 36.35 29.85Q36.80 29.80 37.25 29.77Q37.70 29.75 38.10 29.75Q41.70 29.75 44.65 31.07Q47.60 32.40 49.35 34.82Q51.10 37.25 51.10 40.50L51.10 50.00L54.15 51.50L53.35 58.90M48.55 49.85Q47.35 50.40 46.75 50.40Q45.60 50.40 45.60 48.90L45.60 38.00Q45.60 30.30 37.85 30.30Q37.50 30.30 37.15 30.30Q36.80 30.30 36.40 30.35Q32.95 30.70 30.25 32.75Q27.55 34.80 26.45 38.70L32.05 40.55Q32.60 38.85 33.58 37.80Q34.55 36.75 35.80 36.65Q35.95 36.65 36.10 36.62Q36.25 36.60 36.35 36.60Q37.50 36.60 38.10 37.15Q38.70 37.70 38.70 38.65Q38.70 39.70 38.05 40.32Q37.40 40.95 36.25 41.50L34 42.55Q30.15 44.35 28.18 46.32Q26.20 48.30 26.20 51.70Q26.20 58.40 32.50 58.40Q32.80 58.40 33.10 58.40Q33.40 58.40 33.70 58.35Q36.10 58.15 37.85 57.20Q39.60 56.25 40.50 54.50Q40.85 55.55 42 56.15Q43.15 56.75 44.70 56.75Q46.35 56.75 47.85 56.10L48.55 49.85M35.10 52.55Q34.25 52.55 33.70 52.07Q33.15 51.60 33.15 50.70Q33.15 48.55 35.35 47.50L36.35 47.00Q37.05 46.65 37.73 46.32Q38.40 46.00 38.75 45.60L38.75 49.05Q38.50 50.60 37.55 51.52Q36.60 52.45 35.45 52.55L35.10 52.55ZM83.95 50.15Q83.10 55.05 80.43 57.87Q77.75 60.70 73.15 61.10Q72.65 61.15 72.15 61.17Q71.65 61.20 71.15 61.20Q68.05 61.20 65.28 60.32Q62.50 59.45 60.38 57.55Q58.25 55.65 57.03 52.60Q55.80 49.55 55.80 45.25Q55.80 40.95 57.28 37.57Q58.75 34.20 61.50 32.17Q64.25 30.15 68.05 29.85Q68.30 29.80 68.60 29.80Q68.90 29.80 69.20 29.80Q71.55 29.80 74 30.50Q76.45 31.20 78.60 32.55Q80.75 33.90 82.20 35.87Q83.65 37.85 83.90 40.40L77 43.65L72 41.15Q72 41.05 71.98 40.97Q71.95 40.90 71.95 40.85Q70.55 41.20 69.95 42.47Q69.35 43.75 69.35 47.10Q69.35 48.05 69.50 48.75Q69.65 49.45 69.90 50.10Q70.75 49.65 71.25 48.75Q71.75 47.85 72.05 46.15L78.95 47.65L83.95 50.15M72.45 46.80Q72.10 48.85 71.03 49.95Q69.95 51.05 68.45 51.20Q68.30 51.20 68.15 51.22Q68 51.25 67.90 51.25Q65.75 51.25 64.85 49.57Q63.95 47.90 63.95 44.60Q63.95 41.15 65.13 39.40Q66.30 37.65 68.30 37.45Q68.45 37.45 68.60 37.42Q68.75 37.40 68.85 37.40Q71.75 37.40 72.35 40.45L78.30 37.65Q77.65 34.40 75.25 32.35Q72.85 30.30 69.15 30.30Q68.90 30.30 68.63 30.30Q68.35 30.30 68.10 30.35Q64.40 30.65 61.75 32.62Q59.10 34.60 57.70 37.85Q56.30 41.10 56.30 45.25Q56.30 49.80 57.65 52.65Q59.00 55.50 61.35 56.82Q63.70 58.15 66.70 58.15Q67.05 58.15 67.40 58.15Q67.75 58.15 68.10 58.10Q72.50 57.75 75.05 55.07Q77.60 52.40 78.35 48.05L72.45 46.80ZM102.80 61.05Q102.30 61.10 101.78 61.12Q101.25 61.15 100.70 61.15Q96.20 61.15 92.75 59.30Q89.30 57.45 87.38 53.87Q85.45 50.30 85.45 45.25Q85.45 41.30 86.78 37.92Q88.10 34.55 90.83 32.35Q93.55 30.15 97.70 29.80Q98.10 29.75 98.50 29.75Q98.90 29.75 99.30 29.75Q102.50 29.75 105.33 30.90Q108.15 32.05 110.33 34.15Q112.50 36.25 113.75 39.17Q115.00 42.10 115.00 45.65Q115.00 49.60 113.68 52.97Q112.35 56.35 109.65 58.50Q106.95 60.65 102.80 61.05M97.75 58.05Q101.75 57.70 104.35 55.60Q106.95 53.50 108.23 50.22Q109.50 46.95 109.50 43.15Q109.50 39.50 108.38 36.60Q107.25 33.70 104.93 31.97Q102.60 30.25 99.00 30.25Q98.70 30.25 98.40 30.25Q98.10 30.25 97.75 30.30Q93.75 30.65 91.13 32.77Q88.50 34.90 87.23 38.15Q85.95 41.40 85.95 45.25Q85.95 48.85 87.10 51.77Q88.25 54.70 90.60 56.40Q92.95 58.10 96.50 58.10Q96.80 58.10 97.10 58.10Q97.40 58.10 97.75 58.05M97.30 51.15Q95.45 51.15 94.43 49.55Q93.40 47.95 93.40 44.60Q93.40 41.10 94.55 39.32Q95.70 37.55 97.75 37.35L98.20 37.35Q100.05 37.35 101.05 38.92Q102.05 40.50 102.05 43.80Q102.05 47.30 100.93 49.12Q99.80 50.95 97.75 51.15L97.30 51.15M99.20 50.20Q101.55 48.90 101.55 43.80Q101.55 42.05 101.25 40.80Q99.95 41.00 99.43 42.57Q98.90 44.15 98.90 47.10Q98.90 48.90 99.20 50.20ZM118.50 58.45L118.50 20.45L126.65 19.75L131.65 22.25L131.65 29.20Q132.80 29.05 133.85 29.05Q137.40 29.05 140.38 30.82Q143.35 32.60 145.18 36.17Q147 39.75 147 45.20Q147 52.40 144.18 56.22Q141.35 60.05 136.70 60.45Q136.55 60.45 136.38 60.47Q136.20 60.50 136 60.50Q134.40 60.50 132.83 59.97Q131.25 59.45 130.35 58.85L129.35 60.45L123.50 60.95L118.50 58.45M125.70 55.05Q126.40 55.75 127.68 56.65Q128.95 57.55 130.95 57.55Q131.10 57.55 131.28 57.52Q131.45 57.50 131.65 57.50Q136.15 57.10 138.83 53.37Q141.50 49.65 141.50 42.70Q141.50 36.25 139.18 32.95Q136.85 29.65 132.55 29.65Q132.35 29.65 132.08 29.65Q131.80 29.65 131.55 29.70Q129.25 29.90 128 31.15Q126.75 32.40 126.30 33.50L126.15 33.45L126.15 20.30L119 20.90L119 57.95L124.10 57.50L125.70 55.05M129.70 51.20Q128.15 51.20 127.38 50.30Q126.60 49.40 126.15 48.60L126.15 41.80Q126.15 39.60 127.28 38.20Q128.40 36.80 129.95 36.65L130.35 36.65Q132.45 36.65 133.30 38.37Q134.15 40.10 134.15 43.35Q134.15 47.30 132.97 49.17Q131.80 51.05 130.05 51.20L129.70 51.20M131.65 50.00Q132.60 49.25 133.13 47.60Q133.65 45.95 133.65 43.35Q133.65 42.50 133.60 41.65Q133.55 40.80 133.40 40.30Q132.40 40.60 132.03 41.60Q131.65 42.60 131.65 44.30L131.65 50.00Z"/></g></g></g></svg>