<svg xmlns="http://www.w3.org/2000/svg" viewBox="0 19.100000381469727 205.3000030517578 104.4020004272461" data-asc="1.16" width="205.3000030517578" height="104.4020004272461"><defs/><g><g fill="#000000"><g transform="translate(0, 0)"><path d="M0 48.50L0 40.20L18.60 38.60L23.60 41.10L23.60 49.40L5 51.00L0 48.50M0.50 40.65L0.50 47.95L18.10 46.45L18.10 39.15L0.50 40.65ZM24.45 49.15Q27.45 49.80 29.70 49.80L30.25 49.80Q31.40 49.70 31.82 48.90Q32.25 48.10 32.25 46.70L32.25 19.85L40.80 19.10L45.80 21.60L45.80 50.75Q45.80 60.70 37.35 61.45Q35.80 61.60 34.40 61.60Q33.15 61.60 32.05 61.50Q30.95 61.40 30.10 61.25L25.05 58.75L24.45 49.15M32.75 20.30L32.75 46.70Q32.75 48.35 32.20 49.27Q31.65 50.20 30.30 50.30L29.70 50.30Q28.70 50.30 27.35 50.15Q26 50.00 25 49.80L25.55 58.30Q26.25 58.40 27.20 58.50Q28.15 58.60 29.35 58.60Q30.75 58.60 32.30 58.45Q40.30 57.80 40.30 48.25L40.30 19.65L32.75 20.30ZM77.80 58.90Q76.20 59.55 74.50 59.55Q72.95 59.55 71.65 59.12Q70.35 58.70 69.65 58.30Q67.45 60.95 63.20 61.35Q62.80 61.40 62.40 61.40Q62 61.40 61.60 61.40Q58.50 61.40 55.90 60.32Q53.30 59.25 51.73 57.07Q50.15 54.90 50.15 51.70Q50.15 48.25 52.08 46.20Q54 44.15 57.85 42.30L55.30 41.45L50.30 38.95Q51.55 34.60 54.38 32.40Q57.20 30.20 60.80 29.85Q61.25 29.80 61.70 29.77Q62.15 29.75 62.55 29.75Q66.15 29.75 69.10 31.07Q72.05 32.40 73.80 34.82Q75.55 37.25 75.55 40.50L75.55 50.00L78.60 51.50L77.80 58.90M73 49.85Q71.80 50.40 71.20 50.40Q70.05 50.40 70.05 48.90L70.05 38.00Q70.05 30.30 62.30 30.30Q61.95 30.30 61.60 30.30Q61.25 30.30 60.85 30.35Q57.40 30.70 54.70 32.75Q52 34.80 50.90 38.70L56.50 40.55Q57.05 38.85 58.02 37.80Q59 36.75 60.25 36.65Q60.40 36.65 60.55 36.62Q60.70 36.60 60.80 36.60Q61.95 36.60 62.55 37.15Q63.15 37.70 63.15 38.65Q63.15 39.70 62.50 40.32Q61.85 40.95 60.70 41.50L58.45 42.55Q54.60 44.35 52.63 46.32Q50.65 48.30 50.65 51.70Q50.65 58.40 56.95 58.40Q57.25 58.40 57.55 58.40Q57.85 58.40 58.15 58.35Q60.55 58.15 62.30 57.20Q64.05 56.25 64.95 54.50Q65.30 55.55 66.45 56.15Q67.60 56.75 69.15 56.75Q70.80 56.75 72.30 56.10L73 49.85M59.55 52.55Q58.70 52.55 58.15 52.07Q57.60 51.60 57.60 50.70Q57.60 48.55 59.80 47.50L60.80 47.00Q61.50 46.65 62.17 46.32Q62.85 46.00 63.20 45.60L63.20 49.05Q62.95 50.60 62 51.52Q61.05 52.45 59.90 52.55L59.55 52.55ZM108.40 50.15Q107.55 55.05 104.88 57.87Q102.20 60.70 97.60 61.10Q97.10 61.15 96.60 61.17Q96.10 61.20 95.60 61.20Q92.50 61.20 89.72 60.32Q86.95 59.45 84.82 57.55Q82.70 55.65 81.47 52.60Q80.25 49.55 80.25 45.25Q80.25 40.95 81.72 37.57Q83.20 34.20 85.95 32.17Q88.70 30.15 92.50 29.85Q92.75 29.80 93.05 29.80Q93.35 29.80 93.65 29.80Q96 29.80 98.45 30.50Q100.90 31.20 103.05 32.55Q105.20 33.90 106.65 35.87Q108.10 37.85 108.35 40.40L101.45 43.65L96.45 41.15Q96.45 41.05 96.42 40.97Q96.40 40.90 96.40 40.85Q95 41.20 94.40 42.47Q93.80 43.75 93.80 47.10Q93.80 48.05 93.95 48.75Q94.10 49.45 94.35 50.10Q95.20 49.65 95.70 48.75Q96.20 47.85 96.50 46.15L103.40 47.65L108.40 50.15M96.90 46.80Q96.55 48.85 95.47 49.95Q94.40 51.05 92.90 51.20Q92.75 51.20 92.60 51.22Q92.45 51.25 92.35 51.25Q90.20 51.25 89.30 49.57Q88.40 47.90 88.40 44.60Q88.40 41.15 89.57 39.40Q90.75 37.65 92.75 37.45Q92.90 37.45 93.05 37.42Q93.20 37.40 93.30 37.40Q96.20 37.40 96.80 40.45L102.75 37.65Q102.10 34.40 99.70 32.35Q97.30 30.30 93.60 30.30Q93.35 30.30 93.07 30.30Q92.80 30.30 92.55 30.35Q88.85 30.65 86.20 32.62Q83.55 34.60 82.15 37.85Q80.75 41.10 80.75 45.25Q80.75 49.80 82.10 52.65Q83.45 55.50 85.80 56.82Q88.15 58.15 91.15 58.15Q91.50 58.15 91.85 58.15Q92.20 58.15 92.55 58.10Q96.95 57.75 99.50 55.07Q102.05 52.40 102.80 48.05L96.90 46.80ZM127.25 61.05Q126.75 61.10 126.22 61.12Q125.70 61.15 125.15 61.15Q120.65 61.15 117.20 59.30Q113.75 57.45 111.83 53.87Q109.90 50.30 109.90 45.25Q109.90 41.30 111.22 37.92Q112.55 34.55 115.28 32.35Q118 30.15 122.15 29.80Q122.55 29.75 122.95 29.75Q123.35 29.75 123.75 29.75Q126.95 29.75 129.78 30.90Q132.60 32.05 134.78 34.15Q136.95 36.25 138.20 39.17Q139.45 42.10 139.45 45.65Q139.45 49.60 138.13 52.97Q136.80 56.35 134.10 58.50Q131.40 60.65 127.25 61.05M122.20 58.05Q126.20 57.70 128.80 55.60Q131.40 53.50 132.68 50.22Q133.95 46.95 133.95 43.15Q133.95 39.50 132.82 36.60Q131.70 33.70 129.38 31.97Q127.05 30.25 123.45 30.25Q123.15 30.25 122.85 30.25Q122.55 30.25 122.20 30.30Q118.20 30.65 115.58 32.77Q112.95 34.90 111.67 38.15Q110.40 41.40 110.40 45.25Q110.40 48.85 111.55 51.77Q112.70 54.70 115.05 56.40Q117.40 58.10 120.95 58.10Q121.25 58.10 121.55 58.10Q121.85 58.10 122.20 58.05M121.75 51.15Q119.90 51.15 118.88 49.55Q117.85 47.95 117.85 44.60Q117.85 41.10 119 39.32Q120.15 37.55 122.20 37.35L122.65 37.35Q124.50 37.35 125.50 38.92Q126.50 40.50 126.50 43.80Q126.50 47.30 125.38 49.12Q124.25 50.95 122.20 51.15L121.75 51.15M123.65 50.20Q126 48.90 126 43.80Q126 42.05 125.70 40.80Q124.40 41.00 123.88 42.57Q123.35 44.15 123.35 47.10Q123.35 48.90 123.65 50.20ZM142.95 58.45L142.95 20.45L151.10 19.75L156.10 22.25L156.10 29.20Q157.25 29.05 158.30 29.05Q161.85 29.05 164.82 30.82Q167.80 32.60 169.63 36.17Q171.45 39.75 171.45 45.20Q171.45 52.40 168.63 56.22Q165.80 60.05 161.15 60.45Q161 60.45 160.82 60.47Q160.65 60.50 160.45 60.50Q158.85 60.50 157.28 59.97Q155.70 59.45 154.80 58.85L153.80 60.45L147.95 60.95L142.95 58.45M150.15 55.05Q150.85 55.75 152.13 56.65Q153.40 57.55 155.40 57.55Q155.55 57.55 155.72 57.52Q155.90 57.50 156.10 57.50Q160.60 57.10 163.28 53.37Q165.95 49.65 165.95 42.70Q165.95 36.25 163.63 32.95Q161.30 29.65 157 29.65Q156.80 29.65 156.53 29.65Q156.25 29.65 156 29.70Q153.70 29.90 152.45 31.15Q151.20 32.40 150.75 33.50L150.60 33.45L150.60 20.30L143.45 20.90L143.45 57.95L148.55 57.50L150.15 55.05M154.15 51.20Q152.60 51.20 151.82 50.30Q151.05 49.40 150.60 48.60L150.60 41.80Q150.60 39.60 151.72 38.20Q152.85 36.80 154.40 36.65L154.80 36.65Q156.90 36.65 157.75 38.37Q158.60 40.10 158.60 43.35Q158.60 47.30 157.42 49.17Q156.25 51.05 154.50 51.20L154.15 51.20M156.10 50.00Q157.05 49.25 157.57 47.60Q158.10 45.95 158.10 43.35Q158.10 42.50 158.05 41.65Q158 40.80 157.85 40.30Q156.85 40.60 156.47 41.60Q156.10 42.60 156.10 44.30L156.10 50.00Z"/></g><g transform="translate(0, 53.452000000000005)"><path d="M16.85 57.65L16.85 44.35L13.60 44.65L13.60 60.30L5.00 61.05L0 58.55L0 20.55L8.60 19.80L13.60 22.30L13.60 33.55L16.85 33.25L16.85 19.60L25.50 18.80L30.50 21.30L30.50 59.35L21.85 60.10L16.85 57.65M17.35 20.05L17.35 33.70L8.10 34.50L8.10 20.35L0.50 21.00L0.50 58.00L8.10 57.40L8.10 41.70L17.35 40.90L17.35 57.10L25.00 56.40L25.00 19.35L17.35 20.05ZM52.20 61.05Q51.70 61.10 51.17 61.12Q50.65 61.15 50.10 61.15Q45.60 61.15 42.15 59.30Q38.70 57.45 36.77 53.87Q34.85 50.30 34.85 45.25Q34.85 41.30 36.17 37.92Q37.50 34.55 40.22 32.35Q42.95 30.15 47.10 29.80Q47.50 29.75 47.90 29.75Q48.30 29.75 48.70 29.75Q51.90 29.75 54.72 30.90Q57.55 32.05 59.72 34.15Q61.90 36.25 63.15 39.17Q64.40 42.10 64.40 45.65Q64.40 49.60 63.07 52.97Q61.75 56.35 59.05 58.50Q56.35 60.65 52.20 61.05M47.15 58.05Q51.15 57.70 53.75 55.60Q56.35 53.50 57.63 50.22Q58.90 46.95 58.90 43.15Q58.90 39.50 57.77 36.60Q56.65 33.70 54.32 31.97Q52 30.25 48.40 30.25Q48.10 30.25 47.80 30.25Q47.50 30.25 47.15 30.30Q43.15 30.65 40.52 32.77Q37.90 34.90 36.62 38.15Q35.35 41.40 35.35 45.25Q35.35 48.85 36.50 51.77Q37.65 54.70 40 56.40Q42.35 58.10 45.90 58.10Q46.20 58.10 46.50 58.10Q46.80 58.10 47.15 58.05M46.70 51.15Q44.85 51.15 43.82 49.55Q42.80 47.95 42.80 44.60Q42.80 41.10 43.95 39.32Q45.10 37.55 47.15 37.35L47.60 37.35Q49.45 37.35 50.45 38.92Q51.45 40.50 51.45 43.80Q51.45 47.30 50.32 49.12Q49.20 50.95 47.15 51.15L46.70 51.15M48.60 50.20Q50.95 48.90 50.95 43.80Q50.95 42.05 50.65 40.80Q49.35 41.00 48.82 42.57Q48.30 44.15 48.30 47.10Q48.30 48.90 48.60 50.20ZM67.90 67.55L67.90 31.40L75.55 30.75L76.75 31.35Q77.55 30.70 78.60 30.22Q79.65 29.75 81 29.65Q81.30 29.60 81.60 29.60Q81.90 29.60 82.20 29.60Q84.90 29.60 87.42 30.60Q89.95 31.60 91.97 33.62Q94 35.65 95.20 38.65Q96.40 41.65 96.40 45.70Q96.40 52.80 93.65 56.65Q90.90 60.50 86 60.90Q85.80 60.95 85.58 60.95Q85.35 60.95 85.10 60.95Q83.70 60.95 82.67 60.65Q81.65 60.35 81.05 60.10L81.05 69.35L72.90 70.05L67.90 67.55M75.70 55.80Q76.10 56.75 77.25 57.37Q78.40 58.00 80.10 58.00Q80.30 58.00 80.53 58.00Q80.75 58.00 80.95 57.95Q85.70 57.55 88.30 53.80Q90.90 50.05 90.90 43.20Q90.90 36.65 88.50 33.37Q86.10 30.10 81.95 30.10Q81.75 30.10 81.53 30.10Q81.30 30.10 81.05 30.15Q78.70 30.35 77.25 31.57Q75.80 32.80 75.20 34.35L75.05 34.35L75.05 31.30L68.40 31.85L68.40 67L75.55 66.40L75.55 55.85L75.70 55.80M78.90 51.30Q77.65 51.30 76.72 50.65Q75.80 50.00 75.55 48.95L75.55 42.05Q75.55 39.80 76.63 38.35Q77.70 36.90 79.45 36.75L79.75 36.75Q81.35 36.75 82.45 38.42Q83.55 40.10 83.55 43.85Q83.55 47.65 82.55 49.37Q81.55 51.10 79.35 51.30L78.90 51.30M81.05 50.25Q81.95 49.55 82.50 48.00Q83.05 46.45 83.05 43.85Q83.05 42.85 82.97 41.97Q82.90 41.10 82.70 40.45Q81.80 40.75 81.42 41.62Q81.05 42.50 81.05 44.55L81.05 50.25ZM114.35 57.60L113.05 54.80L113.05 60.10L104.90 60.85L99.90 58.35L99.90 20.40L108.05 19.65L113.05 22.15L113.05 30.55L113.25 30.20L122.65 29.40L127.65 31.90L120.05 43.75L128.50 59.35L119.35 60.10L114.35 57.60M121.70 30.00L113.55 30.70L107.55 41.25L107.55 20.20L100.40 20.85L100.40 57.85L107.55 57.20L107.55 52.10L110.20 47.50L114.60 57.10L122.65 56.40L114.50 41.25L121.70 30.00ZM130.60 57.85L130.60 30.35L134 30.10L130.50 28.35L130.50 19.85L138.85 19.15L143.85 21.65L143.85 30.15L140.30 30.45L143.70 32.15L143.70 59.60L135.60 60.30L130.60 57.85M131 20.30L131 27.80L138.35 27.20L138.35 19.70L131 20.30M131.10 30.80L131.10 57.30L138.20 56.70L138.20 30.20L131.10 30.80ZM162 57.80L162 42.15Q161.40 42.75 161.25 43.55L161.25 60.15L153.70 60.90L148.70 58.40L148.70 30.95L156.35 30.25L157.95 31.55Q158.80 30.85 159.80 30.27Q160.80 29.70 162.20 29.60Q162.45 29.60 162.65 29.57Q162.85 29.55 163.05 29.55Q165.30 29.55 167.47 30.35Q169.65 31.15 171.38 32.57Q173.10 34.00 174.13 35.90Q175.15 37.80 175.15 40.00L175.15 59.55L167 60.25L162 57.80M169.65 36.70Q169.65 33.25 167.78 31.65Q165.90 30.05 163.15 30.05Q162.95 30.05 162.72 30.05Q162.50 30.05 162.25 30.10Q159.80 30.30 158.10 31.97Q156.40 33.65 156 35.85L155.85 35.85L155.85 30.80L149.20 31.40L149.20 57.90L156.35 57.25L156.35 41.00Q156.60 39.80 157.47 38.80Q158.35 37.80 159.75 37.65L159.95 37.65Q161 37.65 161.75 38.37Q162.50 39.10 162.50 40.75L162.50 57.25L169.65 56.60L169.65 36.70ZM198.70 42.60Q201.65 44.05 203.47 46.20Q205.30 48.35 205.30 51.20Q205.30 55.45 202.63 58.02Q199.95 60.60 194.60 61.05Q194.15 61.10 193.70 61.12Q193.25 61.15 192.80 61.15Q187.40 61.15 183.57 58.45Q179.75 55.75 178.15 51.00L184.55 47.10Q181.95 45.90 180.60 44.12Q179.25 42.35 179.25 39.60L179.25 39.45Q179.30 36.95 180.50 34.85Q181.70 32.75 183.95 31.37Q186.20 30.00 189.30 29.75Q189.70 29.70 190.07 29.70Q190.45 29.70 190.80 29.70Q193.10 29.70 195.45 30.32Q197.80 30.95 199.85 32.17Q201.90 33.40 203.25 35.27Q204.60 37.15 204.90 39.65L198.70 42.60M189.10 51.50Q187.45 51.50 186.22 50.40Q185 49.30 184.45 47.75L178.80 51.25Q181.05 58.10 188.10 58.10Q188.45 58.10 188.82 58.10Q189.20 58.10 189.55 58.05Q194.65 57.65 197.22 55.22Q199.80 52.80 199.80 48.70Q199.80 45.10 198.03 43.32Q196.25 41.55 191.80 40.75L189.20 40.30Q187.85 40.05 187.07 39.72Q186.30 39.40 186.30 38.50L186.30 38.35Q186.40 37.55 187.15 37.00Q187.90 36.45 189.40 36.35L189.80 36.35Q191.25 36.35 192.32 37.22Q193.40 38.10 193.75 39.55L199.30 36.90Q198.65 33.70 196.45 31.95Q194.25 30.20 190.70 30.20Q190.35 30.20 190.03 30.20Q189.70 30.20 189.35 30.25Q186.40 30.50 184.22 31.80Q182.05 33.10 180.90 35.07Q179.75 37.05 179.75 39.45Q179.75 42.80 181.50 44.52Q183.25 46.25 187.05 46.80L189.90 47.20Q191.50 47.40 192.22 48.00Q192.95 48.60 192.95 49.45Q192.95 50.40 192.10 50.87Q191.25 51.35 189.45 51.50L189.10 51.50M193.20 39.25Q193.05 39.20 192.70 39.20Q192.05 39.20 191.50 39.55Q190.95 39.90 190.80 40.15Q192.10 40.35 193.32 40.67Q194.55 41.00 195.65 41.40L193.40 40.25L193.20 39.25M189.70 49.50Q189.85 49.85 190 50.22Q190.15 50.60 190.35 50.90Q192.15 50.65 192.40 49.85Q192.40 49.85 192.22 49.65Q192.05 49.45 191.85 49.40Q190.30 49.00 188.95 48.65Q187.60 48.30 186.45 47.90L189.70 49.50Z"/></g></g></g></svg>