<svg xmlns="http://www.w3.org/2000/svg" viewBox="0 18.799999237060547 372.6499938964844 51.250003814697266" data-asc="1.16" width="372.6499938964844" height="51.250003814697266"><defs/><g><g fill="#000000"><g transform="translate(0, 0)"><path d="M0 49.15Q3.00 49.80 5.25 49.80L5.80 49.80Q6.95 49.70 7.38 48.90Q7.80 48.10 7.80 46.70L7.80 19.85L16.35 19.10L21.35 21.60L21.35 50.75Q21.35 60.70 12.90 61.45Q11.35 61.60 9.95 61.60Q8.70 61.60 7.60 61.50Q6.50 61.40 5.65 61.25L0.60 58.75L0 49.15M8.30 20.30L8.30 46.70Q8.30 48.35 7.75 49.27Q7.20 50.20 5.85 50.30L5.25 50.30Q4.25 50.30 2.90 50.15Q1.55 50.00 0.55 49.80L1.10 58.30Q1.80 58.40 2.75 58.50Q3.70 58.60 4.90 58.60Q6.30 58.60 7.85 58.45Q15.85 57.80 15.85 48.25L15.85 19.65L8.30 20.30ZM53.35 58.90Q51.75 59.55 50.05 59.55Q48.50 59.55 47.20 59.12Q45.90 58.70 45.20 58.30Q43 60.95 38.75 61.35Q38.35 61.40 37.95 61.40Q37.55 61.40 37.15 61.40Q34.05 61.40 31.45 60.32Q28.85 59.25 27.28 57.07Q25.70 54.90 25.70 51.70Q25.70 48.25 27.63 46.20Q29.55 44.15 33.40 42.30L30.85 41.45L25.85 38.95Q27.10 34.60 29.93 32.40Q32.75 30.20 36.35 29.85Q36.80 29.80 37.25 29.77Q37.70 29.75 38.10 29.75Q41.70 29.75 44.65 31.07Q47.60 32.40 49.35 34.82Q51.10 37.25 51.10 40.50L51.10 50.00L54.15 51.50L53.35 58.90M48.55 49.85Q47.35 50.40 46.75 50.40Q45.60 50.40 45.60 48.90L45.60 38.00Q45.60 30.30 37.85 30.30Q37.50 30.30 37.15 30.30Q36.80 30.30 36.40 30.35Q32.95 30.70 30.25 32.75Q27.55 34.80 26.45 38.70L32.05 40.55Q32.60 38.85 33.58 37.80Q34.55 36.75 35.80 36.65Q35.95 36.65 36.10 36.62Q36.25 36.60 36.35 36.60Q37.50 36.60 38.10 37.15Q38.70 37.70 38.70 38.65Q38.70 39.70 38.05 40.32Q37.40 40.95 36.25 41.50L34 42.55Q30.15 44.35 28.18 46.32Q26.20 48.30 26.20 51.70Q26.20 58.40 32.50 58.40Q32.80 58.40 33.10 58.40Q33.40 58.40 33.70 58.35Q36.10 58.15 37.85 57.20Q39.60 56.25 40.50 54.50Q40.85 55.55 42 56.15Q43.15 56.75 44.70 56.75Q46.35 56.75 47.85 56.10L48.55 49.85M35.10 52.55Q34.25 52.55 33.70 52.07Q33.15 51.60 33.15 50.70Q33.15 48.55 35.35 47.50L36.35 47.00Q37.05 46.65 37.73 46.32Q38.40 46.00 38.75 45.60L38.75 49.05Q38.50 50.60 37.55 51.52Q36.60 52.45 35.45 52.55L35.10 52.55ZM83.95 50.15Q83.10 55.05 80.43 57.87Q77.75 60.70 73.15 61.10Q72.65 61.15 72.15 61.17Q71.65 61.20 71.15 61.20Q68.05 61.20 65.28 60.32Q62.50 59.45 60.38 57.55Q58.25 55.65 57.03 52.60Q55.80 49.55 55.80 45.25Q55.80 40.95 57.28 37.57Q58.75 34.20 61.50 32.17Q64.25 30.15 68.05 29.85Q68.30 29.80 68.60 29.80Q68.90 29.80 69.20 29.80Q71.55 29.80 74 30.50Q76.45 31.20 78.60 32.55Q80.75 33.90 82.20 35.87Q83.65 37.85 83.90 40.40L77 43.65L72 41.15Q72 41.05 71.98 40.97Q71.95 40.90 71.95 40.85Q70.55 41.20 69.95 42.47Q69.35 43.75 69.35 47.10Q69.35 48.05 69.50 48.75Q69.65 49.45 69.90 50.10Q70.75 49.65 71.25 48.75Q71.75 47.85 72.05 46.15L78.95 47.65L83.95 50.15M72.45 46.80Q72.10 48.85 71.03 49.95Q69.95 51.05 68.45 51.20Q68.30 51.20 68.15 51.22Q68 51.25 67.90 51.25Q65.75 51.25 64.85 49.57Q63.95 47.90 63.95 44.60Q63.95 41.15 65.13 39.40Q66.30 37.65 68.30 37.45Q68.45 37.45 68.60 37.42Q68.75 37.40 68.85 37.40Q71.75 37.40 72.35 40.45L78.30 37.65Q77.65 34.40 75.25 32.35Q72.85 30.30 69.15 30.30Q68.90 30.30 68.63 30.30Q68.35 30.30 68.10 30.35Q64.40 30.65 61.75 32.62Q59.10 34.60 57.70 37.85Q56.30 41.10 56.30 45.25Q56.30 49.80 57.65 52.65Q59.00 55.50 61.35 56.82Q63.70 58.15 66.70 58.15Q67.05 58.15 67.40 58.15Q67.75 58.15 68.10 58.10Q72.50 57.75 75.05 55.07Q77.60 52.40 78.35 48.05L72.45 46.80ZM102.80 61.05Q102.30 61.10 101.78 61.12Q101.25 61.15 100.70 61.15Q96.20 61.15 92.75 59.30Q89.30 57.45 87.38 53.87Q85.45 50.30 85.45 45.25Q85.45 41.30 86.78 37.92Q88.10 34.55 90.83 32.35Q93.55 30.15 97.70 29.80Q98.10 29.75 98.50 29.75Q98.90 29.75 99.30 29.75Q102.50 29.75 105.33 30.90Q108.15 32.05 110.33 34.15Q112.50 36.25 113.75 39.17Q115.00 42.10 115.00 45.65Q115.00 49.60 113.68 52.97Q112.35 56.35 109.65 58.50Q106.95 60.65 102.80 61.05M97.75 58.05Q101.75 57.70 104.35 55.60Q106.95 53.50 108.23 50.22Q109.50 46.95 109.50 43.15Q109.50 39.50 108.38 36.60Q107.25 33.70 104.93 31.97Q102.60 30.25 99.00 30.25Q98.70 30.25 98.40 30.25Q98.10 30.25 97.75 30.30Q93.75 30.65 91.13 32.77Q88.50 34.90 87.23 38.15Q85.95 41.40 85.95 45.25Q85.95 48.85 87.10 51.77Q88.25 54.70 90.60 56.40Q92.95 58.10 96.50 58.10Q96.80 58.10 97.10 58.10Q97.40 58.10 97.75 58.05M97.30 51.15Q95.45 51.15 94.43 49.55Q93.40 47.95 93.40 44.60Q93.40 41.10 94.55 39.32Q95.70 37.55 97.75 37.35L98.20 37.35Q100.05 37.35 101.05 38.92Q102.05 40.50 102.05 43.80Q102.05 47.30 100.93 49.12Q99.80 50.95 97.75 51.15L97.30 51.15M99.20 50.20Q101.55 48.90 101.55 43.80Q101.55 42.05 101.25 40.80Q99.95 41.00 99.43 42.57Q98.90 44.15 98.90 47.10Q98.90 48.90 99.20 50.20ZM118.50 58.45L118.50 20.45L126.65 19.75L131.65 22.25L131.65 29.20Q132.80 29.05 133.85 29.05Q137.40 29.05 140.38 30.82Q143.35 32.60 145.18 36.17Q147 39.75 147 45.20Q147 52.40 144.18 56.22Q141.35 60.05 136.70 60.45Q136.55 60.45 136.38 60.47Q136.20 60.50 136 60.50Q134.40 60.50 132.83 59.97Q131.25 59.45 130.35 58.85L129.35 60.45L123.50 60.95L118.50 58.45M125.70 55.05Q126.40 55.75 127.68 56.65Q128.95 57.55 130.95 57.55Q131.10 57.55 131.28 57.52Q131.45 57.50 131.65 57.50Q136.15 57.10 138.83 53.37Q141.50 49.65 141.50 42.70Q141.50 36.25 139.18 32.95Q136.85 29.65 132.55 29.65Q132.35 29.65 132.08 29.65Q131.80 29.65 131.55 29.70Q129.25 29.90 128 31.15Q126.75 32.40 126.30 33.50L126.15 33.45L126.15 20.30L119 20.90L119 57.95L124.10 57.50L125.70 55.05M129.70 51.20Q128.15 51.20 127.38 50.30Q126.60 49.40 126.15 48.60L126.15 41.80Q126.15 39.60 127.28 38.20Q128.40 36.80 129.95 36.65L130.35 36.65Q132.45 36.65 133.30 38.37Q134.15 40.10 134.15 43.35Q134.15 47.30 132.97 49.17Q131.80 51.05 130.05 51.20L129.70 51.20M131.65 50.00Q132.60 49.25 133.13 47.60Q133.65 45.95 133.65 43.35Q133.65 42.50 133.60 41.65Q133.55 40.80 133.40 40.30Q132.40 40.60 132.03 41.60Q131.65 42.60 131.65 44.30L131.65 50.00ZM184.20 57.65L184.20 44.35L180.95 44.65L180.95 60.30L172.35 61.05L167.35 58.55L167.35 20.55L175.95 19.80L180.95 22.30L180.95 33.55L184.20 33.25L184.20 19.60L192.85 18.80L197.85 21.30L197.85 59.35L189.20 60.10L184.20 57.65M184.70 20.05L184.70 33.70L175.45 34.50L175.45 20.35L167.85 21.00L167.85 58.00L175.45 57.40L175.45 41.70L184.70 40.90L184.70 57.10L192.35 56.40L192.35 19.35L184.70 20.05ZM219.55 61.05Q219.05 61.10 218.53 61.12Q218 61.15 217.45 61.15Q212.95 61.15 209.50 59.30Q206.05 57.45 204.13 53.87Q202.20 50.30 202.20 45.25Q202.20 41.30 203.53 37.92Q204.85 34.55 207.58 32.35Q210.30 30.15 214.45 29.80Q214.85 29.75 215.25 29.75Q215.65 29.75 216.05 29.75Q219.25 29.75 222.08 30.90Q224.90 32.05 227.08 34.15Q229.25 36.25 230.50 39.17Q231.75 42.10 231.75 45.65Q231.75 49.60 230.43 52.97Q229.10 56.35 226.40 58.50Q223.70 60.65 219.55 61.05M214.50 58.05Q218.50 57.70 221.10 55.60Q223.70 53.50 224.98 50.22Q226.25 46.95 226.25 43.15Q226.25 39.50 225.13 36.60Q224 33.70 221.68 31.97Q219.35 30.25 215.75 30.25Q215.45 30.25 215.15 30.25Q214.85 30.25 214.50 30.30Q210.50 30.65 207.88 32.77Q205.25 34.90 203.98 38.15Q202.70 41.40 202.70 45.25Q202.70 48.85 203.85 51.77Q205 54.70 207.35 56.40Q209.70 58.10 213.25 58.10Q213.55 58.10 213.85 58.10Q214.15 58.10 214.50 58.05M214.05 51.15Q212.20 51.15 211.18 49.55Q210.15 47.95 210.15 44.60Q210.15 41.10 211.30 39.32Q212.45 37.55 214.50 37.35L214.95 37.35Q216.80 37.35 217.80 38.92Q218.80 40.50 218.80 43.80Q218.80 47.30 217.68 49.12Q216.55 50.95 214.50 51.15L214.05 51.15M215.95 50.20Q218.30 48.90 218.30 43.80Q218.30 42.05 218 40.80Q216.70 41.00 216.18 42.57Q215.65 44.15 215.65 47.10Q215.65 48.90 215.95 50.20ZM235.25 67.55L235.25 31.40L242.90 30.75L244.10 31.35Q244.90 30.70 245.95 30.22Q247 29.75 248.35 29.65Q248.65 29.60 248.95 29.60Q249.25 29.60 249.55 29.60Q252.25 29.60 254.78 30.60Q257.30 31.60 259.32 33.62Q261.35 35.65 262.55 38.65Q263.75 41.65 263.75 45.70Q263.75 52.80 261 56.65Q258.25 60.50 253.35 60.90Q253.15 60.95 252.93 60.95Q252.70 60.95 252.45 60.95Q251.05 60.95 250.03 60.65Q249 60.35 248.40 60.10L248.40 69.35L240.25 70.05L235.25 67.55M243.05 55.80Q243.45 56.75 244.60 57.37Q245.75 58.00 247.45 58.00Q247.65 58.00 247.88 58.00Q248.10 58.00 248.30 57.95Q253.05 57.55 255.65 53.80Q258.25 50.05 258.25 43.20Q258.25 36.65 255.85 33.37Q253.45 30.10 249.30 30.10Q249.10 30.10 248.88 30.10Q248.65 30.10 248.40 30.15Q246.05 30.35 244.60 31.57Q243.15 32.80 242.55 34.35L242.40 34.35L242.40 31.30L235.75 31.85L235.75 67L242.90 66.40L242.90 55.85L243.05 55.80M246.25 51.30Q245 51.30 244.08 50.65Q243.15 50.00 242.90 48.95L242.90 42.05Q242.90 39.80 243.97 38.35Q245.05 36.90 246.80 36.75L247.10 36.75Q248.70 36.75 249.80 38.42Q250.90 40.10 250.90 43.85Q250.90 47.65 249.90 49.37Q248.90 51.10 246.70 51.30L246.25 51.30M248.40 50.25Q249.30 49.55 249.85 48.00Q250.40 46.45 250.40 43.85Q250.40 42.85 250.33 41.97Q250.25 41.10 250.05 40.45Q249.15 40.75 248.78 41.62Q248.40 42.50 248.40 44.55L248.40 50.25ZM281.70 57.60L280.40 54.80L280.40 60.10L272.25 60.85L267.25 58.35L267.25 20.40L275.40 19.65L280.40 22.15L280.40 30.55L280.60 30.20L290 29.40L295 31.90L287.40 43.75L295.85 59.35L286.70 60.10L281.70 57.60M289.05 30.00L280.90 30.70L274.90 41.25L274.90 20.20L267.75 20.85L267.75 57.85L274.90 57.20L274.90 52.10L277.55 47.50L281.95 57.10L290 56.40L281.85 41.25L289.05 30.00ZM297.95 57.85L297.95 30.35L301.35 30.10L297.85 28.35L297.85 19.85L306.20 19.15L311.20 21.65L311.20 30.15L307.65 30.45L311.05 32.15L311.05 59.60L302.95 60.30L297.95 57.85M298.35 20.30L298.35 27.80L305.70 27.20L305.70 19.70L298.35 20.30M298.45 30.80L298.45 57.30L305.55 56.70L305.55 30.20L298.45 30.80ZM329.35 57.80L329.35 42.15Q328.75 42.75 328.60 43.55L328.60 60.15L321.05 60.90L316.05 58.40L316.05 30.95L323.70 30.25L325.30 31.55Q326.15 30.85 327.15 30.27Q328.15 29.70 329.55 29.60Q329.80 29.60 330 29.57Q330.20 29.55 330.40 29.55Q332.65 29.55 334.82 30.35Q337 31.15 338.72 32.57Q340.45 34.00 341.47 35.90Q342.50 37.80 342.50 40.00L342.50 59.55L334.35 60.25L329.35 57.80M337 36.70Q337 33.25 335.13 31.65Q333.25 30.05 330.50 30.05Q330.30 30.05 330.07 30.05Q329.85 30.05 329.60 30.10Q327.15 30.30 325.45 31.97Q323.75 33.65 323.35 35.85L323.20 35.85L323.20 30.80L316.55 31.40L316.55 57.90L323.70 57.25L323.70 41.00Q323.95 39.80 324.82 38.80Q325.70 37.80 327.10 37.65L327.30 37.65Q328.35 37.65 329.10 38.37Q329.85 39.10 329.85 40.75L329.85 57.25L337 56.60L337 36.70ZM366.05 42.60Q369.00 44.05 370.82 46.20Q372.65 48.35 372.65 51.20Q372.65 55.45 369.97 58.02Q367.30 60.60 361.95 61.05Q361.50 61.10 361.05 61.12Q360.60 61.15 360.15 61.15Q354.75 61.15 350.92 58.45Q347.10 55.75 345.50 51.00L351.90 47.10Q349.30 45.90 347.95 44.12Q346.60 42.35 346.60 39.60L346.60 39.45Q346.65 36.95 347.85 34.85Q349.05 32.75 351.30 31.37Q353.55 30.00 356.65 29.75Q357.05 29.70 357.42 29.70Q357.80 29.70 358.15 29.70Q360.45 29.70 362.80 30.32Q365.15 30.95 367.20 32.17Q369.25 33.40 370.60 35.27Q371.95 37.15 372.25 39.65L366.05 42.60M356.45 51.50Q354.80 51.50 353.57 50.40Q352.35 49.30 351.80 47.75L346.15 51.25Q348.40 58.10 355.45 58.10Q355.80 58.10 356.17 58.10Q356.55 58.10 356.90 58.05Q362.00 57.65 364.57 55.22Q367.15 52.80 367.15 48.70Q367.15 45.10 365.37 43.32Q363.60 41.55 359.15 40.75L356.55 40.30Q355.20 40.05 354.42 39.72Q353.65 39.40 353.65 38.50L353.65 38.35Q353.75 37.55 354.50 37.00Q355.25 36.45 356.75 36.35L357.15 36.35Q358.60 36.35 359.67 37.22Q360.75 38.10 361.10 39.55L366.65 36.90Q366.00 33.70 363.80 31.95Q361.60 30.20 358.05 30.20Q357.70 30.20 357.37 30.20Q357.05 30.20 356.70 30.25Q353.75 30.50 351.57 31.80Q349.40 33.10 348.25 35.07Q347.10 37.05 347.10 39.45Q347.10 42.80 348.85 44.52Q350.60 46.25 354.40 46.80L357.25 47.20Q358.85 47.40 359.57 48.00Q360.30 48.60 360.30 49.45Q360.30 50.40 359.45 50.87Q358.60 51.35 356.80 51.50L356.45 51.50M360.55 39.25Q360.40 39.20 360.05 39.20Q359.40 39.20 358.85 39.55Q358.30 39.90 358.15 40.15Q359.45 40.35 360.67 40.67Q361.90 41.00 363.00 41.40L360.75 40.25L360.55 39.25M357.05 49.50Q357.20 49.85 357.35 50.22Q357.50 50.60 357.70 50.90Q359.50 50.65 359.75 49.85Q359.75 49.85 359.57 49.65Q359.40 49.45 359.20 49.40Q357.65 49.00 356.30 48.65Q354.95 48.30 353.80 47.90L357.05 49.50Z"/></g></g></g></svg>