<?xml version="1.0" encoding="UTF-8"?>
<svg id="Layer_1" data-name="Layer 1" xmlns="http://www.w3.org/2000/svg" viewBox="0 0 205.3 96.55">
  <defs>
    <style>
      .cls-1 {
        fill: #010101;
      }
    </style>
  </defs>
  <path class="cls-1" d="M29.15,30.05c2,.43,3.75.65,5.25.65h.55c.77-.07,1.29-.37,1.58-.9.28-.53.42-1.27.42-2.2V.75l8.55-.75,5,2.5v29.15c0,6.63-2.82,10.2-8.45,10.7-1.03.1-2.02.15-2.95.15-.83,0-1.62-.03-2.35-.1s-1.38-.15-1.95-.25l-5.05-2.5-.6-9.6M37.45,1.2v26.4c0,1.1-.18,1.96-.55,2.57-.37.62-1,.96-1.9,1.03h-.6c-.67,0-1.45-.05-2.35-.15-.9-.1-1.68-.22-2.35-.35l.55,8.5c.47.07,1.02.13,1.65.2.63.07,1.35.1,2.15.1.93,0,1.92-.05,2.95-.15,5.33-.43,8-3.83,8-10.2V.55l-7.55.65ZM82.5,39.8c-1.07.43-2.17.65-3.3.65-1.03,0-1.98-.14-2.85-.43-.87-.28-1.53-.55-2-.82-1.47,1.77-3.62,2.78-6.45,3.05-.27.03-.53.05-.8.05-.27,0-.53,0-.8,0-2.07,0-3.97-.36-5.7-1.08-1.73-.71-3.12-1.8-4.17-3.25-1.05-1.45-1.58-3.24-1.58-5.37,0-2.3.64-4.13,1.93-5.5,1.28-1.37,3.2-2.67,5.77-3.9l-2.55-.85-5-2.5c.83-2.9,2.19-5.08,4.08-6.55,1.88-1.47,4.02-2.32,6.42-2.55.3-.03.6-.06.9-.08.3-.01.58-.02.85-.02,2.4,0,4.58.44,6.55,1.32,1.97.89,3.53,2.14,4.7,3.75,1.17,1.62,1.75,3.51,1.75,5.68v9.5l3.05,1.5-.8,7.4M77.7,30.75c-.8.37-1.4.55-1.8.55-.77,0-1.15-.5-1.15-1.5v-10.9c0-5.13-2.58-7.7-7.75-7.7-.23,0-.47,0-.7,0-.23,0-.48.02-.75.05-2.3.23-4.35,1.03-6.15,2.4-1.8,1.37-3.07,3.35-3.8,5.95l5.6,1.85c.37-1.13.88-2.05,1.53-2.75.65-.7,1.39-1.08,2.22-1.15.1,0,.2-.01.3-.03.1-.01.18-.02.25-.02.77,0,1.35.18,1.75.55.4.37.6.87.6,1.5,0,.7-.22,1.26-.65,1.67-.43.42-1.03.81-1.8,1.18l-2.25,1.05c-2.57,1.2-4.51,2.46-5.82,3.77-1.32,1.32-1.98,3.11-1.98,5.38,0,4.47,2.1,6.7,6.3,6.7.2,0,.4,0,.6,0,.2,0,.4-.02.6-.05,1.6-.13,2.98-.52,4.15-1.15,1.17-.63,2.05-1.53,2.65-2.7.23.7.73,1.25,1.5,1.65.77.4,1.67.6,2.7.6,1.1,0,2.15-.22,3.15-.65l.7-6.25M64.25,33.45c-.57,0-1.03-.16-1.4-.48-.37-.31-.55-.77-.55-1.37,0-1.43.73-2.5,2.2-3.2l1-.5c.47-.23.93-.46,1.38-.68.45-.21.79-.45,1.02-.72v3.45c-.17,1.03-.57,1.86-1.2,2.47-.63.62-1.33.96-2.1,1.03h-.35ZM113.1,31.05c-.57,3.27-1.74,5.84-3.52,7.72-1.79,1.89-4.21,2.96-7.28,3.23-.33.03-.67.06-1,.07-.33.02-.67.03-1,.03-2.07,0-4.02-.29-5.87-.88-1.85-.58-3.49-1.5-4.9-2.77-1.42-1.27-2.54-2.92-3.35-4.95-.82-2.03-1.23-4.48-1.23-7.35s.49-5.43,1.48-7.68c.98-2.25,2.39-4.05,4.22-5.4,1.83-1.35,4.02-2.12,6.55-2.32.17-.03.35-.05.55-.05.2,0,.4,0,.6,0,1.57,0,3.17.23,4.8.7s3.17,1.15,4.6,2.05c1.43.9,2.63,2.01,3.6,3.32.97,1.32,1.53,2.83,1.7,4.53l-6.9,3.25-5-2.5c0-.07,0-.13-.02-.18-.02-.05-.03-.09-.03-.12-.93.23-1.6.77-2,1.62-.4.85-.6,2.4-.6,4.63,0,.63.05,1.18.15,1.65s.23.92.4,1.35c.57-.3,1.02-.75,1.35-1.35s.6-1.47.8-2.6l6.9,1.5,5,2.5M101.6,27.7c-.23,1.37-.71,2.42-1.42,3.15-.72.73-1.58,1.15-2.58,1.25-.1,0-.2,0-.3.02-.1.02-.18.03-.25.03-1.43,0-2.45-.56-3.05-1.68-.6-1.11-.9-2.77-.9-4.97s.39-4.03,1.18-5.2c.78-1.17,1.84-1.82,3.17-1.95.1,0,.2-.01.3-.03.1-.01.18-.02.25-.02,1.93,0,3.1,1.02,3.5,3.05l5.95-2.8c-.43-2.17-1.45-3.93-3.05-5.3-1.6-1.37-3.63-2.05-6.1-2.05-.17,0-.34,0-.52,0-.19,0-.36.02-.53.05-2.47.2-4.58.96-6.35,2.27-1.77,1.32-3.12,3.06-4.05,5.23-.93,2.17-1.4,4.63-1.4,7.4,0,3.03.45,5.5,1.35,7.4.9,1.9,2.13,3.29,3.7,4.17,1.57.89,3.35,1.33,5.35,1.33.23,0,.47,0,.7,0,.23,0,.47-.02.7-.05,2.93-.23,5.25-1.24,6.95-3.03,1.7-1.78,2.8-4.12,3.3-7.02l-5.9-1.25ZM131.95,41.95c-.33.03-.67.06-1.02.07-.35.02-.71.03-1.08.03-3,0-5.65-.62-7.95-1.85-2.3-1.23-4.09-3.04-5.37-5.43-1.29-2.38-1.93-5.25-1.93-8.62,0-2.63.44-5.08,1.33-7.33.88-2.25,2.23-4.1,4.05-5.57,1.81-1.47,4.1-2.32,6.87-2.55.27-.03.53-.05.8-.05h.8c2.13,0,4.14.38,6.03,1.15,1.88.77,3.55,1.85,5,3.25,1.45,1.4,2.59,3.07,3.42,5.02.83,1.95,1.25,4.11,1.25,6.48,0,2.63-.44,5.07-1.32,7.32-.89,2.25-2.23,4.1-4.03,5.53s-4.08,2.28-6.85,2.55M126.9,38.95c2.67-.23,4.87-1.05,6.6-2.45,1.73-1.4,3.03-3.19,3.88-5.38.85-2.18,1.27-4.54,1.27-7.07s-.37-4.62-1.12-6.55c-.75-1.93-1.9-3.48-3.45-4.63-1.55-1.15-3.53-1.72-5.93-1.72h-.6c-.2,0-.42.02-.65.05-2.67.23-4.87,1.06-6.62,2.47-1.75,1.42-3.05,3.21-3.9,5.38-.85,2.17-1.28,4.53-1.28,7.1,0,2.4.38,4.57,1.15,6.52.77,1.95,1.93,3.5,3.5,4.63s3.53,1.7,5.9,1.7c.2,0,.4,0,.6,0,.2,0,.42-.02.65-.05M126.45,32.05c-1.23,0-2.19-.53-2.87-1.6-.69-1.07-1.03-2.72-1.03-4.95s.38-4.09,1.15-5.28c.77-1.18,1.83-1.84,3.2-1.97h.45c1.23,0,2.18.52,2.85,1.57.67,1.05,1,2.68,1,4.88,0,2.33-.37,4.11-1.12,5.32-.75,1.22-1.81,1.9-3.18,2.03h-.45M128.35,31.1c1.57-.87,2.35-3,2.35-6.4,0-1.17-.1-2.17-.3-3-.87.13-1.47.72-1.82,1.77-.35,1.05-.53,2.56-.53,4.53,0,1.2.1,2.23.3,3.1ZM147.65,39.35V1.35l8.15-.7,5,2.5v6.95c.77-.1,1.5-.15,2.2-.15,2.37,0,4.54.59,6.53,1.77,1.98,1.19,3.58,2.97,4.8,5.35,1.21,2.39,1.82,5.4,1.82,9.03,0,4.8-.94,8.47-2.82,11.02-1.89,2.55-4.38,3.96-7.48,4.23-.1,0-.21,0-.32.02-.12.02-.25.03-.38.03-1.07,0-2.12-.18-3.17-.53-1.05-.35-1.88-.72-2.48-1.12l-1,1.6-5.85.5-5-2.5M154.85,35.95c.47.47,1.13,1,1.98,1.6.85.6,1.94.9,3.27.9.1,0,.21-.01.33-.03.11-.01.24-.02.37-.02,3-.27,5.39-1.64,7.18-4.13,1.78-2.48,2.67-6.04,2.67-10.67,0-4.3-.77-7.55-2.32-9.75-1.55-2.2-3.76-3.3-6.63-3.3h-.47c-.19,0-.36.02-.53.05-1.53.13-2.72.62-3.55,1.45-.83.83-1.4,1.62-1.7,2.35l-.15-.05V1.2l-7.15.6v37.05l5.1-.45,1.6-2.45M158.85,32.1c-1.03,0-1.81-.3-2.32-.9-.52-.6-.93-1.17-1.23-1.7v-6.8c0-1.47.38-2.67,1.13-3.6.75-.93,1.64-1.45,2.67-1.55h.4c1.4,0,2.38.57,2.95,1.72.57,1.15.85,2.81.85,4.98,0,2.63-.39,4.57-1.18,5.82-.78,1.25-1.75,1.93-2.92,2.03h-.35M160.8,30.9c.63-.5,1.13-1.3,1.48-2.4.35-1.1.52-2.52.52-4.25,0-.57-.02-1.13-.05-1.7-.03-.57-.1-1.02-.2-1.35-.67.2-1.12.63-1.37,1.3-.25.67-.38,1.57-.38,2.7v5.7Z"/>
  <path class="cls-1" d="M16.85,84.15v-13.3l-3.25.3v15.65l-8.6.75-5-2.5v-38l8.6-.75,5,2.5v11.25l3.25-.3v-13.65l8.65-.8,5,2.5v38.05l-8.65.75-5-2.45M17.35,46.55v13.65l-9.25.8v-14.15l-7.6.65v37l7.6-.6v-15.7l9.25-.8v16.2l7.65-.7v-37.05l-7.65.7ZM52.2,87.55c-.33.03-.68.06-1.03.07-.35.02-.7.03-1.07.03-3,0-5.65-.62-7.95-1.85-2.3-1.23-4.09-3.04-5.38-5.43-1.28-2.38-1.92-5.25-1.92-8.62,0-2.63.44-5.08,1.32-7.33.89-2.25,2.24-4.1,4.05-5.57,1.82-1.47,4.11-2.32,6.88-2.55.27-.03.53-.05.8-.05h.8c2.13,0,4.14.38,6.02,1.15,1.89.77,3.55,1.85,5,3.25,1.45,1.4,2.6,3.07,3.43,5.02.83,1.95,1.25,4.11,1.25,6.48,0,2.63-.44,5.07-1.33,7.32-.88,2.25-2.22,4.1-4.02,5.53-1.8,1.43-4.08,2.28-6.85,2.55M47.15,84.55c2.67-.23,4.87-1.05,6.6-2.45,1.73-1.4,3.03-3.19,3.88-5.38.85-2.18,1.27-4.54,1.27-7.07,0-2.43-.38-4.62-1.13-6.55-.75-1.93-1.9-3.48-3.45-4.63-1.55-1.15-3.52-1.72-5.92-1.72h-.6c-.2,0-.42.02-.65.05-2.67.23-4.88,1.06-6.63,2.47-1.75,1.42-3.05,3.21-3.9,5.38-.85,2.17-1.27,4.53-1.27,7.1,0,2.4.38,4.57,1.15,6.52.77,1.95,1.93,3.5,3.5,4.63s3.53,1.7,5.9,1.7c.2,0,.4,0,.6,0,.2,0,.42-.02.65-.05M46.7,77.65c-1.23,0-2.19-.53-2.88-1.6-.68-1.07-1.02-2.72-1.02-4.95s.38-4.09,1.15-5.28c.77-1.18,1.83-1.84,3.2-1.97h.45c1.23,0,2.18.52,2.85,1.57.67,1.05,1,2.68,1,4.88,0,2.33-.38,4.11-1.13,5.32-.75,1.22-1.8,1.9-3.17,2.03h-.45M48.6,76.7c1.57-.87,2.35-3,2.35-6.4,0-1.17-.1-2.17-.3-3-.87.13-1.48.72-1.83,1.77-.35,1.05-.52,2.56-.52,4.53,0,1.2.1,2.23.3,3.1ZM67.9,94.05v-36.15l7.65-.65,1.2.6c.53-.43,1.15-.81,1.85-1.13.7-.31,1.5-.5,2.4-.57.2-.03.4-.05.6-.05h.6c1.8,0,3.54.33,5.22,1,1.69.67,3.2,1.67,4.55,3.02,1.35,1.35,2.43,3.03,3.23,5.03.8,2,1.2,4.35,1.2,7.05,0,4.73-.92,8.38-2.75,10.95-1.83,2.57-4.38,3.98-7.65,4.25-.13.03-.27.05-.42.05h-.48c-.93,0-1.74-.1-2.43-.3-.68-.2-1.22-.38-1.62-.55v9.25l-8.15.7-5-2.5M75.7,82.3c.27.63.78,1.16,1.55,1.57.77.42,1.72.63,2.85.63h.43c.15,0,.29-.02.42-.05,3.17-.27,5.62-1.65,7.35-4.15s2.6-6.03,2.6-10.6-.8-7.64-2.4-9.83c-1.6-2.18-3.78-3.27-6.55-3.27h-.42c-.15,0-.31.02-.48.05-1.57.13-2.83.61-3.8,1.42-.97.82-1.65,1.75-2.05,2.78h-.15v-3.05l-6.65.55v35.15l7.15-.6v-10.55l.15-.05M78.9,77.8c-.83,0-1.56-.22-2.18-.65-.61-.43-1-1-1.17-1.7v-6.9c0-1.5.36-2.73,1.08-3.7.71-.97,1.65-1.5,2.82-1.6h.3c1.07,0,1.97.56,2.7,1.67.73,1.12,1.1,2.93,1.1,5.43s-.33,4.37-1,5.52c-.67,1.15-1.73,1.8-3.2,1.93h-.45M81.05,76.75c.6-.47,1.08-1.22,1.45-2.25s.55-2.42.55-4.15c0-.67-.03-1.29-.08-1.88-.05-.58-.14-1.09-.27-1.52-.6.2-1.03.59-1.28,1.17-.25.59-.37,1.56-.37,2.93v5.7ZM114.35,84.1l-1.3-2.8v5.3l-8.15.75-5-2.5v-37.95l8.15-.75,5,2.5v8.4l.2-.35,9.4-.8,5,2.5-7.6,11.85,8.45,15.6-9.15.75-5-2.5M121.7,56.5l-8.15.7-6,10.55v-21.05l-7.15.65v37l7.15-.65v-5.1l2.65-4.6,4.4,9.6,8.05-.7-8.15-15.15,7.2-11.25ZM130.6,84.35v-27.5l3.4-.25-3.5-1.75v-8.5l8.35-.7,5,2.5v8.5l-3.55.3,3.4,1.7v27.45l-8.1.7-5-2.45M131,46.8v7.5l7.35-.6v-7.5l-7.35.6M131.1,57.3v26.5l7.1-.6v-26.5l-7.1.6ZM162,84.3v-15.65c-.4.4-.65.87-.75,1.4v16.6l-7.55.75-5-2.5v-27.45l7.65-.7,1.6,1.3c.57-.47,1.18-.89,1.85-1.28.67-.38,1.47-.6,2.4-.67.17,0,.32,0,.45-.03.13-.01.27-.02.4-.02,1.5,0,2.97.27,4.42.8,1.45.53,2.76,1.27,3.91,2.22,1.15.95,2.06,2.06,2.75,3.33.68,1.27,1.02,2.63,1.02,4.1v19.55l-8.15.7-5-2.45M169.65,63.2c0-2.3-.62-3.98-1.87-5.05-1.25-1.07-2.8-1.6-4.63-1.6-.13,0-.28,0-.43,0-.15,0-.3.02-.47.05-1.63.13-3.02.76-4.15,1.87-1.13,1.12-1.83,2.41-2.1,3.88h-.15v-5.05l-6.65.6v26.5l7.15-.65v-16.25c.17-.8.54-1.53,1.12-2.2.59-.67,1.35-1.05,2.28-1.15h.2c.7,0,1.3.24,1.8.72.5.49.75,1.28.75,2.38v16.5l7.15-.65v-19.9ZM198.7,69.1c1.97.97,3.56,2.17,4.77,3.6,1.22,1.43,1.83,3.1,1.83,5,0,2.83-.89,5.11-2.67,6.82-1.79,1.72-4.46,2.73-8.03,3.03-.3.03-.6.06-.9.07-.3.02-.6.03-.9.03-3.6,0-6.68-.9-9.23-2.7-2.55-1.8-4.35-4.28-5.42-7.45l6.4-3.9c-1.73-.8-3.05-1.79-3.95-2.98-.9-1.18-1.35-2.69-1.35-4.52v-.15c.03-1.67.45-3.2,1.25-4.6.8-1.4,1.95-2.56,3.45-3.48,1.5-.91,3.28-1.45,5.35-1.62.27-.03.52-.05.77-.05.25,0,.5,0,.73,0,1.53,0,3.08.21,4.65.62,1.57.42,3.03,1.04,4.4,1.85,1.37.82,2.5,1.85,3.4,3.1.9,1.25,1.45,2.71,1.65,4.38l-6.2,2.95M189.1,78c-1.1,0-2.06-.37-2.88-1.1-.81-.73-1.4-1.62-1.77-2.65l-5.65,3.5c1.5,4.57,4.6,6.85,9.3,6.85.23,0,.47,0,.72,0,.25,0,.5-.02.73-.05,3.4-.27,5.96-1.21,7.67-2.83,1.72-1.61,2.58-3.79,2.58-6.52,0-2.4-.59-4.19-1.77-5.38-1.19-1.18-3.26-2.04-6.23-2.57l-2.6-.45c-.9-.17-1.61-.36-2.13-.58-.51-.21-.77-.62-.77-1.22v-.15c.07-.53.35-.98.85-1.35.5-.37,1.25-.58,2.25-.65h.4c.97,0,1.81.29,2.52.87.72.59,1.2,1.36,1.43,2.33l5.55-2.65c-.43-2.13-1.38-3.78-2.85-4.95-1.47-1.17-3.38-1.75-5.75-1.75-.23,0-.46,0-.67,0-.22,0-.45.02-.68.05-1.97.17-3.68.68-5.13,1.55-1.45.87-2.55,1.96-3.32,3.27-.77,1.32-1.15,2.78-1.15,4.38,0,2.23.58,3.92,1.75,5.07,1.17,1.15,3.02,1.91,5.55,2.28l2.85.4c1.07.13,1.84.4,2.32.8.49.4.73.88.73,1.45,0,.63-.28,1.11-.85,1.42-.57.32-1.45.53-2.65.63h-.35M193.2,65.75c-.1-.03-.27-.05-.5-.05-.43,0-.83.12-1.2.35-.37.23-.6.43-.7.6.87.13,1.71.31,2.52.52.82.22,1.6.46,2.33.73l-2.25-1.15-.2-1M189.7,76c.1.23.2.47.3.72.1.25.22.48.35.68,1.2-.17,1.88-.52,2.05-1.05,0,0-.06-.07-.18-.2-.11-.13-.24-.22-.37-.25-1.03-.27-2-.52-2.9-.75-.9-.23-1.73-.48-2.5-.75l3.25,1.6Z"/>
</svg>