<svg width="1400" height="1000" xmlns="http://www.w3.org/2000/svg" data-asc="1.16">
 <g id="Layer_1">
  <title>Layer 1</title>
  <path id="svg_5" d="m320,357c0,0 160,-10 160,-10c0,0 13,-36 13,-36c0,0 3,-285 3,-285c0,0 158,-12 158,-12c0,0 36,21 36,21c0,0 1,57 1,57c0,0 219,-15 219,-15c0,0 27,36 27,36c0,0 10,250 10,250c0,0 83,-6 83,-6c0,0 24,15 24,15c0,0 1,39 1,39c0,0 52,5 52,5c0,0 30,36 30,36c0,0 8,102 8,102c0,0 -32,49 -32,49c0,0 -139,2 -139,2c0,0 -5,112 -4,112c1,0 38,27 38,27c0,0 256,8 262,8c6,0 57,41 57,41c0,0 0,129 0,129c0,0 -76,29 -76,29c0,0 -652,3 -652,3c0,0 -3,37 -3,37c0,0 -63,6 -63,6c0,0 -26,-17 -26,-17c0,0 -6,-46 -6,-46c0,0 -390,19 -390,19c0,0 0,-260 0,-260c0,0 169,-19 169,-19c0,0 -6,-148 -6,-148c0,0 44,-6 44,-6c0,0 2,-163 2,-163z" opacity="NaN" stroke="#000" fill="none"/>
 </g>

</svg>