<svg width="1400" height="1000" xmlns="http://www.w3.org/2000/svg" data-asc="1.16">
 <g id="Layer_1">
  <title>Layer 1</title>
  <path id="svg_5" d="m-228.77041,41.26119l16.30165,-53.13095" opacity="NaN" stroke="#000" fill="none"/>
  <path id="svg_6" d="m486.9763,22.26957c0,0 157.86785,-7.12186 157.55185,-8.02585c0.316,0.904 38.29924,18.70864 37.98324,17.80464c0.316,0.904 2.68995,51.94398 2.37395,51.03998c0.316,0.904 29.99041,6.83888 29.67441,5.93488c0.316,0.904 177.17547,-12.15274 176.85947,-13.05674c0.31599,0.904 29.9904,25.8305 29.67441,24.9265c0.31599,0.90399 13.37273,48.38305 13.05674,47.47905c0.31599,0.90399 -0.87098,192.00718 -1.18698,191.10319c0.31599,0.90399 14.55971,17.52166 14.24372,16.61767c0.31599,0.90399 47.79504,6.83887 47.47905,5.93488c0.31599,0.90399 35.92528,-0.28299 35.60929,-1.18698c0.31599,0.90399 20.49459,12.77375 20.1786,11.86976c0.31599,0.90399 1.50297,42.44816 1.18698,41.54417c0.31599,0.90399 53.72992,11.58677 53.41393,10.68279c0.31599,0.90399 31.17737,48.38304 30.86138,47.47905c0.31599,0.90399 -3.24494,112.47976 -3.56093,111.57577c0.31599,0.90398 -59.03283,25.83049 -59.34882,24.9265c0.31599,0.90398 -40.0412,88.74023 -40.3572,87.83625c0.31599,0.90398 0.31599,37.70025 0,36.79627c0.31599,0.90398 43.04714,16.33467 42.73115,15.43069c0.31599,0.90398 43.04714,12.77374 42.73115,11.86976c0.31599,0.90398 75.09549,-2.65695 74.77951,-3.56093c0.31599,0.90398 58.47783,-2.65695 58.16184,-3.56093c0.31599,0.90398 35.92527,10.39979 35.60929,9.49581c0.31598,0.90398 29.99039,36.51327 29.67441,35.60929c0.31598,0.90398 5.06389,41.26117 4.74791,40.3572c0.31598,0.90398 -4.43192,85.17929 -4.74791,84.27532c0.31598,0.90398 -37.66726,21.08257 -37.98324,20.1786c0.31598,0.90397 -685.75632,9.21281 -686.07232,8.30883c0.316,0.90397 -3.24493,36.51326 -3.56093,35.60929c0.316,0.90397 -30.54538,12.77374 -30.86138,11.86976c0.316,0.90397 -56.65886,-14.52672 -56.97486,-15.43069c0.316,0.90397 -34.10631,-46.57508 -34.42231,-47.47905c0.316,0.90397 -364.08572,8.02583 -364.40173,7.12186c0.31601,0.90397 1.50299,-247.17407 1.18698,-248.07805c0.31601,0.90398 162.93177,-15.71369 162.61576,-16.61767c0.31601,0.90398 -0.87097,-151.02899 -1.18698,-151.93297c0.31601,0.90398 43.04716,4.46491 42.73115,3.56093c0.31601,0.90398 6.25089,-173.58153 5.93488,-174.48552c0.31601,0.90399 167.67967,-13.33973 167.36366,-14.24372c0.316,0.90399 6.25089,-319.57961 6.25089,-319.57961z" opacity="NaN" stroke="#000" fill="none"/>
 </g>
</svg>