<svg width="215.00000000000003" height="140" xmlns="http://www.w3.org/2000/svg" data-asc="1.16">
 <g id="Layer_1">
  <title>Layer 1</title>
  <path id="svg_1" d="m68.47071,4.02657l34.37399,-1.50498l-0.72045,13.5085l14.58918,-1.98125l20.3528,-0.72045l6.6642,5.22328l1.26079,27.017l21.97382,-1.98125l1.98125,9.18578l11.34714,3.96249l3.78238,16.57043l-5.76363,12.60793l-8.82555,1.44091l4.14261,10.98691c0.02764,0.06408 8.13274,6.90839 8.13274,7.0885c0,0.18011 8.64544,-7.56476 8.61779,-7.62884c0.02765,0.06408 12.8157,1.14476 12.78805,1.08068c0.02765,0.06408 6.69184,5.46748 6.66419,5.4034c0.02765,0.06408 1.64867,18.97598 1.62102,18.9119c0.02765,0.06408 -4.6553,7.26861 -4.68294,7.20453c0.02764,0.06408 -118.84715,2.22544 -118.87479,2.16136c0.02764,0.06408 -1.41326,7.0885 -1.44091,7.02442c0.02765,0.06408 -13.48085,-0.11603 -13.5085,-0.18011c0.02765,0.06408 -6.27632,-11.64329 -6.30396,-11.70737c0.02764,0.06408 -10.59904,4.56691 -10.62669,4.50283c0.02765,0.06408 -16.54278,-4.25864 -16.57042,-4.32272c0.02764,0.06408 -35.99502,4.3868 -36.02267,4.32272c0.02765,0.06408 0.7481,-42.983 0.72046,-43.04708c0.02764,0.06408 30.64691,-2.27739 30.61926,-2.34147c0.02765,0.06408 0.20776,-13.62453 0.18011,-13.68861c0.02765,0.06408 6.69184,0.24419 6.6642,0.18011c0.02764,0.06408 0.56798,-29.29439 0.54034,-29.35847c0.02764,0.06408 14.07648,-0.29615 14.04883,-0.36023c0.02765,0.06408 1.28844,4.3868 1.2608,4.32272c0.02764,0.06408 0.02764,15.01349 0,14.94941c0.02764,0.06408 10.11399,-9.1217 10.08634,-9.18578c0.02765,0.06408 0.92822,-49.6472 0.92822,-49.6472z" opacity="NaN" stroke="#000" fill="none"/>
 </g>

</svg>